<?xml version="1.0" encoding="UTF-8" standalone="no"?>
<!DOCTYPE svg PUBLIC "-//W3C//DTD SVG 1.1//EN"
 "http://www.w3.org/Graphics/SVG/1.1/DTD/svg11.dtd">
<!-- Generated by graphviz version 2.26.3 (20100126.1600)
 -->
<!-- Title: G Pages: 1 -->
<svg width="446pt" height="976pt"
 viewBox="0.00 0.00 446.00 976.00" xmlns="http://www.w3.org/2000/svg" xmlns:xlink="http://www.w3.org/1999/xlink">
<g id="graph1" class="graph" transform="scale(1 1) rotate(0) translate(4 972)">
<title>G</title>
<polygon fill="white" stroke="white" points="-4,5 -4,-972 443,-972 443,5 -4,5"/>
<g id="graph2" class="cluster"><title>cluster_phemto</title>
<polyline fill="none" stroke="gray" points="20,-44 418,-44 "/>
<path fill="none" stroke="gray" d="M418,-44C424,-44 430,-50 430,-56"/>
<polyline fill="none" stroke="gray" points="430,-56 430,-948 "/>
<path fill="none" stroke="gray" d="M430,-948C430,-954 424,-960 418,-960"/>
<polyline fill="none" stroke="gray" points="418,-960 20,-960 "/>
<path fill="none" stroke="gray" d="M20,-960C14,-960 8,-954 8,-948"/>
<polyline fill="none" stroke="gray" points="8,-948 8,-56 "/>
<path fill="none" stroke="gray" d="M8,-56C8,-50 14,-44 20,-44"/>
<text text-anchor="middle" x="219" y="-946.1" font-family="Times Roman,serif" font-size="11.00" fill="gray">phemto</text>
</g>
<g id="graph3" class="cluster"><title>cluster_phemto\exception</title>
<polyline fill="none" stroke="gray" points="206,-450 410,-450 "/>
<path fill="none" stroke="gray" d="M410,-450C416,-450 422,-456 422,-462"/>
<polyline fill="none" stroke="gray" points="422,-462 422,-674 "/>
<path fill="none" stroke="gray" d="M422,-674C422,-680 416,-686 410,-686"/>
<polyline fill="none" stroke="gray" points="410,-686 206,-686 "/>
<path fill="none" stroke="gray" d="M206,-686C200,-686 194,-680 194,-674"/>
<polyline fill="none" stroke="gray" points="194,-674 194,-462 "/>
<path fill="none" stroke="gray" d="M194,-462C194,-456 200,-450 206,-450"/>
<text text-anchor="middle" x="308" y="-672.1" font-family="Times Roman,serif" font-size="11.00" fill="gray">exception</text>
</g>
<g id="graph4" class="cluster"><title>cluster_phemto\lifecycle</title>
<polyline fill="none" stroke="gray" points="28,-694 350,-694 "/>
<path fill="none" stroke="gray" d="M350,-694C356,-694 362,-700 362,-706"/>
<polyline fill="none" stroke="gray" points="362,-706 362,-918 "/>
<path fill="none" stroke="gray" d="M362,-918C362,-924 356,-930 350,-930"/>
<polyline fill="none" stroke="gray" points="350,-930 28,-930 "/>
<path fill="none" stroke="gray" d="M28,-930C22,-930 16,-924 16,-918"/>
<polyline fill="none" stroke="gray" points="16,-918 16,-706 "/>
<path fill="none" stroke="gray" d="M16,-706C16,-700 22,-694 28,-694"/>
<text text-anchor="middle" x="189" y="-916.1" font-family="Times Roman,serif" font-size="11.00" fill="gray">lifecycle</text>
</g>
<g id="graph5" class="cluster"><title>cluster_phemto\repository</title>
<polyline fill="none" stroke="gray" points="253,-314 363,-314 "/>
<path fill="none" stroke="gray" d="M363,-314C369,-314 375,-320 375,-326"/>
<polyline fill="none" stroke="gray" points="375,-326 375,-430 "/>
<path fill="none" stroke="gray" d="M375,-430C375,-436 369,-442 363,-442"/>
<polyline fill="none" stroke="gray" points="363,-442 253,-442 "/>
<path fill="none" stroke="gray" d="M253,-442C247,-442 241,-436 241,-430"/>
<polyline fill="none" stroke="gray" points="241,-430 241,-326 "/>
<path fill="none" stroke="gray" d="M241,-326C241,-320 247,-314 253,-314"/>
<text text-anchor="middle" x="308" y="-428.1" font-family="Times Roman,serif" font-size="11.00" fill="gray">repository</text>
</g>
<!-- \\phemto\\exception\\MissingDependency -->
<g id="node3" class="node"><title>\\phemto\\exception\\MissingDependency</title>
<a xlink:href="exception.MissingDependency.html" xlink:title="MissingDependency" target="_parent">
<polygon fill="none" stroke="black" points="373,-656 243,-656 243,-620 373,-620 373,-656"/>
<text text-anchor="middle" x="308" y="-635.1" font-family="Courier,monospace" font-size="11.00">MissingDependency</text>
</a>
</g>
<!-- \\Exception -->
<g id="node26" class="node"><title>\\Exception</title>
<ellipse fill="none" stroke="black" cx="67" cy="-18" rx="62.9325" ry="18.3848"/>
<text text-anchor="middle" x="67" y="-14.4" font-family="Times Roman,serif" font-size="14.00" fill="gray">\Exception</text>
</g>
<!-- \\phemto\\exception\\MissingDependency&#45;&gt;\\Exception -->
<g id="edge14" class="edge"><title>\\phemto\\exception\\MissingDependency&#45;&gt;\\Exception</title>
<path fill="none" stroke="black" d="M242.216,-635.103C224.496,-631.223 206.732,-624.01 194,-611 113.282,-528.521 77.6771,-152.451 69.1126,-46.095"/>
<polygon fill="none" stroke="black" points="72.6009,-45.808 68.3252,-36.1143 65.6226,-46.3587 72.6009,-45.808"/>
</g>
<!-- \\phemto\\exception\\CannotFindImplementation -->
<g id="node4" class="node"><title>\\phemto\\exception\\CannotFindImplementation</title>
<a xlink:href="exception.CannotFindImplementation.html" xlink:title="CannotFindImplementation" target="_parent">
<polygon fill="none" stroke="black" points="397,-602 219,-602 219,-566 397,-566 397,-602"/>
<text text-anchor="middle" x="308" y="-581.1" font-family="Courier,monospace" font-size="11.00">CannotFindImplementation</text>
</a>
</g>
<!-- \\phemto\\exception\\CannotFindImplementation&#45;&gt;\\Exception -->
<g id="edge16" class="edge"><title>\\phemto\\exception\\CannotFindImplementation&#45;&gt;\\Exception</title>
<path fill="none" stroke="black" d="M218.465,-573.296C209.393,-569.283 200.971,-563.979 194,-557 120.171,-483.086 80.1655,-146.205 69.7641,-46.1194"/>
<polygon fill="none" stroke="black" points="73.2435,-45.7385 68.7449,-36.1462 66.2798,-46.4502 73.2435,-45.7385"/>
</g>
<!-- \\phemto\\exception\\CannotDetermineImplementation -->
<g id="node5" class="node"><title>\\phemto\\exception\\CannotDetermineImplementation</title>
<a xlink:href="exception.CannotDetermineImplementation.html" xlink:title="CannotDetermineImplementation" target="_parent">
<polygon fill="none" stroke="black" points="414,-548 202,-548 202,-512 414,-512 414,-548"/>
<text text-anchor="middle" x="308" y="-527.1" font-family="Courier,monospace" font-size="11.00">CannotDetermineImplementation</text>
</a>
</g>
<!-- \\phemto\\exception\\CannotDetermineImplementation&#45;&gt;\\Exception -->
<g id="edge18" class="edge"><title>\\phemto\\exception\\CannotDetermineImplementation&#45;&gt;\\Exception</title>
<path fill="none" stroke="black" d="M205.167,-511.905C201.172,-509.294 197.419,-506.34 194,-503 127.067,-437.624 82.9863,-140.003 70.5805,-46.321"/>
<polygon fill="none" stroke="black" points="74.0217,-45.6422 69.2564,-36.1795 67.0806,-46.5485 74.0217,-45.6422"/>
</g>
<!-- \\phemto\\exception\\SetterDoesNotExist -->
<g id="node6" class="node"><title>\\phemto\\exception\\SetterDoesNotExist</title>
<a xlink:href="exception.SetterDoesNotExist.html" xlink:title="SetterDoesNotExist" target="_parent">
<polygon fill="none" stroke="black" points="377,-494 239,-494 239,-458 377,-458 377,-494"/>
<text text-anchor="middle" x="308" y="-473.1" font-family="Courier,monospace" font-size="11.00">SetterDoesNotExist</text>
</a>
</g>
<!-- \\phemto\\exception\\SetterDoesNotExist&#45;&gt;\\Exception -->
<g id="edge20" class="edge"><title>\\phemto\\exception\\SetterDoesNotExist&#45;&gt;\\Exception</title>
<path fill="none" stroke="black" d="M238.89,-469.613C222.468,-465.133 206.197,-457.823 194,-446 134.959,-388.769 86.5461,-132.401 71.7006,-46.3029"/>
<polygon fill="none" stroke="black" points="75.1124,-45.4887 69.9818,-36.219 68.2119,-46.665 75.1124,-45.4887"/>
</g>
<!-- \\phemto\\lifecycle\\Reused -->
<g id="node8" class="node"><title>\\phemto\\lifecycle\\Reused</title>
<a xlink:href="lifecycle.Reused.html" xlink:title="Reused" target="_parent">
<polygon fill="none" stroke="black" points="336,-900 280,-900 280,-864 336,-864 336,-900"/>
<text text-anchor="middle" x="308" y="-879.1" font-family="Courier,monospace" font-size="11.00">Reused</text>
</a>
</g>
<!-- \\phemto\\lifecycle\\Lifecycle -->
<g id="node10" class="node"><title>\\phemto\\lifecycle\\Lifecycle</title>
<a xlink:href="lifecycle.Lifecycle.html" xlink:title="«abstract»&lt;br/&gt;Lifecycle" target="_parent">
<polygon fill="none" stroke="black" points="109,-819 25,-819 25,-783 109,-783 109,-819"/>
<text text-anchor="start" x="33" y="-806.433" font-family="Courier,monospace" font-size="11.00">«abstract»</text>
<text text-anchor="start" x="36.5" y="-793.233" font-family="Courier,monospace" font-size="11.00">Lifecycle</text>
</a>
</g>
<!-- \\phemto\\lifecycle\\Reused&#45;&gt;\\phemto\\lifecycle\\Lifecycle -->
<g id="edge6" class="edge"><title>\\phemto\\lifecycle\\Reused&#45;&gt;\\phemto\\lifecycle\\Lifecycle</title>
<path fill="none" stroke="black" d="M279.047,-876.557C255.778,-871.846 222.406,-864.328 194,-855 166.991,-846.131 137.737,-833.883 114.12,-823.293"/>
<polygon fill="none" stroke="black" points="115.254,-819.964 104.701,-819.024 112.364,-826.34 115.254,-819.964"/>
</g>
<!-- \\phemto\\lifecycle\\Value -->
<g id="node9" class="node"><title>\\phemto\\lifecycle\\Value</title>
<a xlink:href="lifecycle.Value.html" xlink:title="Value" target="_parent">
<polygon fill="none" stroke="black" points="335,-846 281,-846 281,-810 335,-810 335,-846"/>
<text text-anchor="middle" x="308" y="-825.1" font-family="Courier,monospace" font-size="11.00">Value</text>
</a>
</g>
<!-- \\phemto\\lifecycle\\Value&#45;&gt;\\phemto\\lifecycle\\Lifecycle -->
<g id="edge8" class="edge"><title>\\phemto\\lifecycle\\Value&#45;&gt;\\phemto\\lifecycle\\Lifecycle</title>
<path fill="none" stroke="black" d="M280.823,-824.955C241.978,-820.603 169.794,-812.516 120.122,-806.951"/>
<polygon fill="none" stroke="black" points="120.212,-803.44 109.884,-805.804 119.432,-810.396 120.212,-803.44"/>
</g>
<!-- \\phemto\\lifecycle\\Factory -->
<g id="node11" class="node"><title>\\phemto\\lifecycle\\Factory</title>
<a xlink:href="lifecycle.Factory.html" xlink:title="Factory" target="_parent">
<polygon fill="none" stroke="black" points="340,-792 276,-792 276,-756 340,-756 340,-792"/>
<text text-anchor="middle" x="308" y="-771.1" font-family="Courier,monospace" font-size="11.00">Factory</text>
</a>
</g>
<!-- \\phemto\\lifecycle\\Factory&#45;&gt;\\phemto\\lifecycle\\Lifecycle -->
<g id="edge10" class="edge"><title>\\phemto\\lifecycle\\Factory&#45;&gt;\\phemto\\lifecycle\\Lifecycle</title>
<path fill="none" stroke="black" d="M275.997,-777.585C236.155,-782.049 167.546,-789.736 119.852,-795.079"/>
<polygon fill="none" stroke="black" points="119.259,-791.623 109.711,-796.215 120.038,-798.58 119.259,-791.623"/>
</g>
<!-- \\phemto\\lifecycle\\Sessionable -->
<g id="node12" class="node"><title>\\phemto\\lifecycle\\Sessionable</title>
<a xlink:href="lifecycle.Sessionable.html" xlink:title="Sessionable" target="_parent">
<polygon fill="none" stroke="black" points="353,-738 263,-738 263,-702 353,-702 353,-738"/>
<text text-anchor="middle" x="308" y="-717.1" font-family="Courier,monospace" font-size="11.00">Sessionable</text>
</a>
</g>
<!-- \\phemto\\lifecycle\\Sessionable&#45;&gt;\\phemto\\lifecycle\\Lifecycle -->
<g id="edge12" class="edge"><title>\\phemto\\lifecycle\\Sessionable&#45;&gt;\\phemto\\lifecycle\\Lifecycle</title>
<path fill="none" stroke="black" d="M262.356,-728.288C241.225,-732.762 215.987,-739.021 194,-747 164.106,-757.848 159.294,-766.621 130,-779 126.542,-780.461 122.95,-781.905 119.313,-783.313"/>
<polygon fill="none" stroke="black" points="117.776,-780.151 109.643,-786.94 120.235,-786.705 117.776,-780.151"/>
</g>
<!-- \\phemto\\repository\\ReflectionCache -->
<g id="node14" class="node"><title>\\phemto\\repository\\ReflectionCache</title>
<a xlink:href="repository.ReflectionCache.html" xlink:title="ReflectionCache" target="_parent">
<polygon fill="none" stroke="black" points="367,-412 249,-412 249,-376 367,-376 367,-412"/>
<text text-anchor="middle" x="308" y="-391.1" font-family="Courier,monospace" font-size="11.00">ReflectionCache</text>
</a>
</g>
<!-- \\phemto\\repository\\ClassRepository -->
<g id="node15" class="node"><title>\\phemto\\repository\\ClassRepository</title>
<a xlink:href="repository.ClassRepository.html" xlink:title="ClassRepository" target="_parent">
<polygon fill="none" stroke="black" points="367,-358 249,-358 249,-322 367,-322 367,-358"/>
<text text-anchor="middle" x="308" y="-337.1" font-family="Courier,monospace" font-size="11.00">ClassRepository</text>
</a>
</g>
<!-- \\phemto\\Type -->
<g id="node16" class="node"><title>\\phemto\\Type</title>
<a xlink:href="Type.html" xlink:title="Type" target="_parent">
<polygon fill="none" stroke="black" points="335,-304 281,-304 281,-268 335,-268 335,-304"/>
<text text-anchor="middle" x="308" y="-283.1" font-family="Courier,monospace" font-size="11.00">Type</text>
</a>
</g>
<!-- \\phemto\\Variable -->
<g id="node17" class="node"><title>\\phemto\\Variable</title>
<a xlink:href="Variable.html" xlink:title="Variable" target="_parent">
<polygon fill="none" stroke="black" points="343,-250 273,-250 273,-214 343,-214 343,-250"/>
<text text-anchor="middle" x="308" y="-229.1" font-family="Courier,monospace" font-size="11.00">Variable</text>
</a>
</g>
<!-- \\phemto\\Phemto -->
<g id="node18" class="node"><title>\\phemto\\Phemto</title>
<a xlink:href="Phemto.html" xlink:title="Phemto" target="_parent">
<polygon fill="none" stroke="black" points="336,-196 280,-196 280,-160 336,-160 336,-196"/>
<text text-anchor="middle" x="308" y="-175.1" font-family="Courier,monospace" font-size="11.00">Phemto</text>
</a>
</g>
<!-- \\phemto\\Context -->
<g id="node19" class="node"><title>\\phemto\\Context</title>
<a xlink:href="Context.html" xlink:title="Context" target="_parent">
<polygon fill="none" stroke="black" points="340,-142 276,-142 276,-106 340,-106 340,-142"/>
<text text-anchor="middle" x="308" y="-121.1" font-family="Courier,monospace" font-size="11.00">Context</text>
</a>
</g>
<!-- \\phemto\\IncomingParameters -->
<g id="node20" class="node"><title>\\phemto\\IncomingParameters</title>
<a xlink:href="IncomingParameters.html" xlink:title="IncomingParameters" target="_parent">
<polygon fill="none" stroke="black" points="377,-88 239,-88 239,-52 377,-52 377,-88"/>
<text text-anchor="middle" x="308" y="-67.1" font-family="Courier,monospace" font-size="11.00">IncomingParameters</text>
</a>
</g>
</g>
</svg>
